<?xml version="1.0" encoding="UTF-8"?><svg xmlns="http://www.w3.org/2000/svg" xmlns:xlink="http://www.w3.org/1999/xlink" version="1.1" x="0px" y="0px" viewBox="0 0 32 32" xml:space="preserve"><g id="Line" fill="#414753"><path d="M30 2v28H2V2h28m1-1H1v30h30V1z"/><path d="M30 2v28H2V2h28m1-1H1v30h30V1z"/><g><path d="M9.575 11.905c-.645 0-1.168.523-1.168 1.168v4.672a1.168 1.168 0 0 0 2.336 0v-4.672a1.167 1.167 0 0 0-1.168-1.168z"/><path d="M22.425 11.905c-.645 0-1.168.523-1.168 1.168v4.672a1.168 1.168 0 0 0 2.336 0v-4.672c0-.645-.524-1.168-1.168-1.168z"/><path d="M11.328 21.25h1.168v2.92a1.168 1.168 0 0 0 2.336 0v-2.92h2.336v2.92a1.168 1.168 0 0 0 2.336 0v-2.92h1.168v-8.761h-9.345v8.761z"/><path d="M18.758 8.139l.6-1.039a.292.292 0 1 0-.506-.292l-.585 1.013A4.64 4.64 0 0 0 16 7.233c-.823 0-1.595.214-2.267.589l-.585-1.014a.292.292 0 0 0-.507.292l.6 1.04a4.663 4.663 0 0 0-1.914 3.766h9.345a4.663 4.663 0 0 0-1.914-3.767zm-4.51 2.014a.583.583 0 1 1-.001-1.167.583.583 0 0 1 .001 1.167zm3.504 0a.583.583 0 1 1-.001-1.167.583.583 0 0 1 .001 1.167z"/></g></g><metadata><rdf:RDF xmlns:rdf="http://www.w3.org/1999/02/22-rdf-syntax-ns#" xmlns:rdfs="http://www.w3.org/2000/01/rdf-schema#" xmlns:dc="http://purl.org/dc/elements/1.1/"><rdf:Description about="https://iconscout.com/legal#licenses" dc:title="android,social,media,logo" dc:description="android,social,media,logo" dc:publisher="Iconscout" dc:date="2017-09-15" dc:format="image/svg+xml" dc:language="en"><dc:creator><rdf:Bag><rdf:li>Epicflaticon by Alfredo</rdf:li></rdf:Bag></dc:creator></rdf:Description></rdf:RDF></metadata></svg>