<?xml version="1.0" encoding="UTF-8"?><svg xmlns="http://www.w3.org/2000/svg" xmlns:xlink="http://www.w3.org/1999/xlink" version="1.1" x="0px" y="0px" viewBox="0 0 32 32" xml:space="preserve"><g id="Line"><g fill="#414753"><path d="M30 2v28H2V2h28m1-1H1v30h30V1z"/><path d="M30 2v28H2V2h28m1-1H1v30h30V1z"/></g><path fill="#414753" d="M23.792 18.612V15.5c0-.861-.706-1.568-1.567-1.568h-.773a.787.787 0 0 1-.795-.773 5.464 5.464 0 0 0-5.452-5.452h-2.34a4.672 4.672 0 0 0-4.657 4.657v6.246c0 2.56 2.097 4.68 4.657 4.68h6.246c2.561.002 4.681-2.118 4.681-4.678zm-10.927-.795h5.452c.442 0 .795.354.795.795 0 .42-.353.773-.795.773h-5.452a.782.782 0 0 1-.772-.773c0-.441.353-.795.772-.795zm3.731-5.451c0 .441-.331.795-.772.795h-2.958a.787.787 0 0 1-.772-.795c0-.419.353-.772.772-.772h2.958a.766.766 0 0 1 .772.772z"/></g><metadata><rdf:RDF xmlns:rdf="http://www.w3.org/1999/02/22-rdf-syntax-ns#" xmlns:rdfs="http://www.w3.org/2000/01/rdf-schema#" xmlns:dc="http://purl.org/dc/elements/1.1/"><rdf:Description about="https://iconscout.com/legal#licenses" dc:title="blogger,social,media,logo" dc:description="blogger,social,media,logo" dc:publisher="Iconscout" dc:date="2017-09-15" dc:format="image/svg+xml" dc:language="en"><dc:creator><rdf:Bag><rdf:li>Epicflaticon by Alfredo</rdf:li></rdf:Bag></dc:creator></rdf:Description></rdf:RDF></metadata></svg>