<?xml version="1.0" encoding="UTF-8"?><svg xmlns="http://www.w3.org/2000/svg" xmlns:xlink="http://www.w3.org/1999/xlink" version="1.1" x="0px" y="0px" viewBox="0 0 32 32" xml:space="preserve"><g id="Line" fill="#414753"><path d="M30 2v28H2V2h28m1-1H1v30h30V1z"/><path d="M30 2v28H2V2h28m1-1H1v30h30V1z"/><path d="M22.196 10.903c-.015.021-1.302 1.881-4.47 3.175a26.009 26.009 0 0 1 .707 1.58c2.756-.347 5.472.236 5.588.26a7.992 7.992 0 0 0-1.825-5.015zm-3.274 6.02c1.052 2.892 1.48 5.247 1.562 5.731a8.029 8.029 0 0 0 3.438-5.382c-.166-.053-2.41-.764-5-.349zm.21 6.464c-.118-.701-.585-3.158-1.713-6.092l-.054.018c-4.734 1.649-6.28 4.975-6.296 5.012a8.01 8.01 0 0 0 8.063 1.062zm-2.023-10.505c3.027-1.134 4.17-2.874 4.19-2.904A7.99 7.99 0 0 0 16 7.977c-.652 0-1.285.079-1.891.225.12.161 1.627 2.16 3 4.68zm-.238 3.083a26.886 26.886 0 0 0-.651-1.364c-4.132 1.237-8.095 1.148-8.237 1.143-.002.086-.007.17-.007.256 0 2.061.778 3.941 2.056 5.36-.003-.003 2.193-3.899 6.523-5.299a8.83 8.83 0 0 1 .316-.096zm8.332-1.856a9.422 9.422 0 0 1-.548 5.549 9.295 9.295 0 0 1-.866 1.596 9.533 9.533 0 0 1-1.146 1.391 9.74 9.74 0 0 1-1.39 1.147A9.393 9.393 0 0 1 16 25.398a9.454 9.454 0 0 1-3.658-.74 9.554 9.554 0 0 1-1.597-.866 9.487 9.487 0 0 1-2.536-2.538 9.327 9.327 0 0 1-1.415-3.362 9.499 9.499 0 0 1 0-3.783 9.36 9.36 0 0 1 2.561-4.754 9.468 9.468 0 0 1 2.986-2.013 9.439 9.439 0 0 1 7.316 0 9.374 9.374 0 0 1 1.596.868 9.428 9.428 0 0 1 3.95 5.899zm-9.647-.743a48.187 48.187 0 0 0-2.98-4.623 8.035 8.035 0 0 0-4.428 5.603c.212.002 3.555.044 7.408-.98z"/></g><metadata><rdf:RDF xmlns:rdf="http://www.w3.org/1999/02/22-rdf-syntax-ns#" xmlns:rdfs="http://www.w3.org/2000/01/rdf-schema#" xmlns:dc="http://purl.org/dc/elements/1.1/"><rdf:Description about="https://iconscout.com/legal#licenses" dc:title="dribbble,social,media,logo" dc:description="dribbble,social,media,logo" dc:publisher="Iconscout" dc:date="2017-09-15" dc:format="image/svg+xml" dc:language="en"><dc:creator><rdf:Bag><rdf:li>Epicflaticon by Alfredo</rdf:li></rdf:Bag></dc:creator></rdf:Description></rdf:RDF></metadata></svg>