<?xml version="1.0" encoding="UTF-8"?><svg xmlns="http://www.w3.org/2000/svg" xmlns:xlink="http://www.w3.org/1999/xlink" version="1.1" x="0px" y="0px" viewBox="0 0 32 32" xml:space="preserve"><g id="Line" fill="#414753"><path d="M30 2v28H2V2h28m1-1H1v30h30V1z"/><path d="M30 2v28H2V2h28m1-1H1v30h30V1z"/><path d="M20.014 21.129l1.698-1.019v.927l-5.725 3.613-5.598-3.64v-.872l1.675.992.186.11.172-.131 3.616-2.776 3.615 2.776.173.131.188-.111zM16.05 10.32l5.506 3.163L16 17.165l-5.521-3.478 5.571-3.367zm9.56.185L19.938 6.88l-3.9 3.27-3.812-3.27-5.837 3.802 4.019 3.058-4.019 3.058 3.999 2.369 1.838 1.088 3.812-2.925 3.811 2.925 1.863-1.118 3.899-2.339-3.722-3.191 3.721-3.102z"/></g><metadata><rdf:RDF xmlns:rdf="http://www.w3.org/1999/02/22-rdf-syntax-ns#" xmlns:rdfs="http://www.w3.org/2000/01/rdf-schema#" xmlns:dc="http://purl.org/dc/elements/1.1/"><rdf:Description about="https://iconscout.com/legal#licenses" dc:title="dropbox,social,media,logo" dc:description="dropbox,social,media,logo" dc:publisher="Iconscout" dc:date="2017-09-15" dc:format="image/svg+xml" dc:language="en"><dc:creator><rdf:Bag><rdf:li>Epicflaticon by Alfredo</rdf:li></rdf:Bag></dc:creator></rdf:Description></rdf:RDF></metadata></svg>