<?xml version="1.0" encoding="UTF-8"?><svg xmlns="http://www.w3.org/2000/svg" xmlns:xlink="http://www.w3.org/1999/xlink" version="1.1" x="0px" y="0px" viewBox="0 0 32 32" xml:space="preserve"><g id="Line" fill="#414753"><path d="M30 2v28H2V2h28m1-1H1v30h30V1z"/><path d="M30 2v28H2V2h28m1-1H1v30h30V1z"/><path d="M23.85 14.468c.102.546.158 1.118.158 1.716 0 4.668-3.125 7.988-7.845 7.988-4.515 0-8.172-3.657-8.172-8.172s3.657-8.172 8.172-8.172c2.207 0 4.05.812 5.465 2.13l-2.304 2.304v-.005c-.858-.817-1.946-1.236-3.161-1.236-2.697 0-4.888 2.278-4.888 4.975 0 2.696 2.191 4.98 4.888 4.98 2.446 0 4.111-1.4 4.454-3.32h-4.454v-3.187l7.687-.001z"/></g><metadata><rdf:RDF xmlns:rdf="http://www.w3.org/1999/02/22-rdf-syntax-ns#" xmlns:rdfs="http://www.w3.org/2000/01/rdf-schema#" xmlns:dc="http://purl.org/dc/elements/1.1/"><rdf:Description about="https://iconscout.com/legal#licenses" dc:title="google,social,media,logo" dc:description="google,social,media,logo" dc:publisher="Iconscout" dc:date="2017-09-15" dc:format="image/svg+xml" dc:language="en"><dc:creator><rdf:Bag><rdf:li>Epicflaticon by Alfredo</rdf:li></rdf:Bag></dc:creator></rdf:Description></rdf:RDF></metadata></svg>