<?xml version="1.0" encoding="UTF-8"?><svg xmlns="http://www.w3.org/2000/svg" xmlns:xlink="http://www.w3.org/1999/xlink" version="1.1" x="0px" y="0px" viewBox="0 0 32 32" xml:space="preserve"><g id="Line" fill="#414753"><path d="M30 2v28H2V2h28m1-1H1v30h30V1z"/><path d="M30 2v28H2V2h28m1-1H1v30h30V1z"/><path fill-rule="evenodd" clip-rule="evenodd" d="M16.103 6.677c-4.159 0-7.446 3.487-7.446 7.694 0 4.395 5.78 10.951 7.446 10.951 1.459 0 7.239-6.556 7.239-10.951 0-4.207-3.287-7.694-7.239-7.694zm.025 11.693c-2.596 0-4.597-1.981-4.597-4.298 0-1.073.364-2.031.959-2.798.008.953.79 1.723 1.754 1.723.97 0 1.756-.778 1.756-1.738 0-.705-.426-1.31-1.036-1.582a4.814 4.814 0 0 1 1.164-.156c2.341 0 4.342 1.981 4.342 4.551-.001 2.317-2.002 4.298-4.342 4.298z"/></g><metadata><rdf:RDF xmlns:rdf="http://www.w3.org/1999/02/22-rdf-syntax-ns#" xmlns:rdfs="http://www.w3.org/2000/01/rdf-schema#" xmlns:dc="http://purl.org/dc/elements/1.1/"><rdf:Description about="https://iconscout.com/legal#licenses" dc:title="periscope,social,media,logo" dc:description="periscope,social,media,logo" dc:publisher="Iconscout" dc:date="2017-09-15" dc:format="image/svg+xml" dc:language="en"><dc:creator><rdf:Bag><rdf:li>Epicflaticon by Alfredo</rdf:li></rdf:Bag></dc:creator></rdf:Description></rdf:RDF></metadata></svg>