<?xml version="1.0" encoding="UTF-8"?><svg xmlns="http://www.w3.org/2000/svg" xmlns:xlink="http://www.w3.org/1999/xlink" version="1.1" x="0px" y="0px" viewBox="0 0 32 32" xml:space="preserve"><g id="Line" fill="#414753"><path d="M30 2v28H2V2h28m1-1H1v30h30V1z"/><path d="M30 2v28H2V2h28m1-1H1v30h30V1z"/><path d="M23.17 12.834c0 4.173-2.32 7.292-5.741 7.292-1.149 0-2.229-.621-2.599-1.327 0 0-.618 2.451-.748 2.925-.461 1.672-1.816 3.344-1.921 3.482-.074.095-.236.065-.253-.061-.029-.213-.375-2.323.032-4.043l1.368-5.797s-.339-.679-.339-1.683c0-1.577.914-2.754 2.052-2.754.968 0 1.435.726 1.435 1.597 0 .973-.619 2.428-.939 3.775-.267 1.129.566 2.05 1.679 2.05 2.016 0 3.373-2.59 3.373-5.657 0-2.331-1.57-4.077-4.427-4.077-3.227 0-5.238 2.407-5.238 5.096 0 .927.274 1.581.702 2.086.196.233.224.326.153.593-.052.196-.168.667-.217.854-.07.27-.289.366-.532.266-1.486-.607-2.179-2.235-2.179-4.065 0-3.022 2.549-6.646 7.604-6.646 4.062-.001 6.735 2.937 6.735 6.094z"/></g><metadata><rdf:RDF xmlns:rdf="http://www.w3.org/1999/02/22-rdf-syntax-ns#" xmlns:rdfs="http://www.w3.org/2000/01/rdf-schema#" xmlns:dc="http://purl.org/dc/elements/1.1/"><rdf:Description about="https://iconscout.com/legal#licenses" dc:title="pinterest,social,media,logo" dc:description="pinterest,social,media,logo" dc:publisher="Iconscout" dc:date="2017-09-15" dc:format="image/svg+xml" dc:language="en"><dc:creator><rdf:Bag><rdf:li>Epicflaticon by Alfredo</rdf:li></rdf:Bag></dc:creator></rdf:Description></rdf:RDF></metadata></svg>