<?xml version="1.0" encoding="UTF-8"?><svg xmlns="http://www.w3.org/2000/svg" xmlns:xlink="http://www.w3.org/1999/xlink" version="1.1" x="0px" y="0px" viewBox="0 0 32 32" xml:space="preserve"><g id="Line"><g fill="#414753"><path d="M30 2v28H2V2h28m1-1H1v30h30V1z"/><path d="M30 2v28H2V2h28m1-1H1v30h30V1z"/></g><path fill="#414753" d="M24.882 12.135s-.177-1.333-.72-1.92c-.69-.769-1.462-.774-1.816-.818-2.537-.197-6.342-.197-6.342-.197h-.009s-3.805 0-6.341.197c-.354.044-1.126.048-1.816.818-.543.587-.72 1.92-.72 1.92s-.181 1.564-.181 3.129v1.466c0 1.566.181 3.13.181 3.13s.177 1.333.72 1.919c.69.769 1.595.746 1.999.827 1.45.148 6.163.194 6.163.194s3.809-.007 6.346-.201c.354-.045 1.126-.05 1.816-.819.543-.586.72-1.919.72-1.919s.181-1.565.181-3.13v-1.466c0-1.566-.181-3.13-.181-3.13zM13.736 19.4v-6.8l5.666 3.4-5.666 3.4z"/></g><metadata><rdf:RDF xmlns:rdf="http://www.w3.org/1999/02/22-rdf-syntax-ns#" xmlns:rdfs="http://www.w3.org/2000/01/rdf-schema#" xmlns:dc="http://purl.org/dc/elements/1.1/"><rdf:Description about="https://iconscout.com/legal#licenses" dc:title="play,social,media,logo" dc:description="play,social,media,logo" dc:publisher="Iconscout" dc:date="2017-09-15" dc:format="image/svg+xml" dc:language="en"><dc:creator><rdf:Bag><rdf:li>Epicflaticon by Alfredo</rdf:li></rdf:Bag></dc:creator></rdf:Description></rdf:RDF></metadata></svg>