<?xml version="1.0" encoding="UTF-8"?><svg xmlns="http://www.w3.org/2000/svg" xmlns:xlink="http://www.w3.org/1999/xlink" version="1.1" x="0px" y="0px" viewBox="0 0 32 32" xml:space="preserve"><g id="Line" fill="#414753"><path d="M30 2v28H2V2h28m1-1H1v30h30V1z"/><path d="M30 2v28H2V2h28m1-1H1v30h30V1z"/><path d="M20.939 22.879h2.814c0-8.069-6.564-14.638-14.632-14.638v2.807c6.515-.001 11.818 5.308 11.818 11.831zm-9.869.005a1.944 1.944 0 0 0 1.951-1.942 1.95 1.95 0 0 0-3.899 0 1.943 1.943 0 0 0 1.948 1.942zm4.895-.004h2.818c0-5.329-4.335-9.664-9.662-9.664v2.806c1.827 0 3.545.714 4.838 2.009a6.807 6.807 0 0 1 2.006 4.849z"/></g><metadata><rdf:RDF xmlns:rdf="http://www.w3.org/1999/02/22-rdf-syntax-ns#" xmlns:rdfs="http://www.w3.org/2000/01/rdf-schema#" xmlns:dc="http://purl.org/dc/elements/1.1/"><rdf:Description about="https://iconscout.com/legal#licenses" dc:title="rss,social,media,logo" dc:description="rss,social,media,logo" dc:publisher="Iconscout" dc:date="2017-09-15" dc:format="image/svg+xml" dc:language="en"><dc:creator><rdf:Bag><rdf:li>Epicflaticon by Alfredo</rdf:li></rdf:Bag></dc:creator></rdf:Description></rdf:RDF></metadata></svg>