<?xml version="1.0" encoding="UTF-8"?><svg xmlns="http://www.w3.org/2000/svg" xmlns:xlink="http://www.w3.org/1999/xlink" version="1.1" x="0px" y="0px" viewBox="0 0 32 32" xml:space="preserve"><g id="Line" fill="#414753"><path d="M30 2v28H2V2h28m1-1H1v30h30V1z"/><path d="M30 2v28H2V2h28m1-1H1v30h30V1z"/><path d="M16.7 22.205c-2.517.134-3.695-.435-4.775-1.467-1.205-1.154-.721-2.469.261-2.536.981-.067 1.571 1.134 2.094 1.469.523.333 2.513 1.092 3.565-.135 1.144-1.334-.761-2.024-2.159-2.233-1.995-.301-4.514-1.401-4.318-3.57.196-2.167 1.806-3.278 3.499-3.435 2.159-.2 3.565.333 4.677 1.301 1.285 1.118.59 2.367-.229 2.468-.816.1-1.732-1.838-3.531-1.868-1.855-.03-3.108 1.968-.818 2.535 2.29.567 4.743.8 5.626 2.935.884 2.134-1.373 4.402-3.892 4.536zm7.098-5.079c.048-.355.075-.717.075-1.084 0-4.411-3.543-7.988-7.914-7.988-.435 0-.86.037-1.275.106a4.662 4.662 0 0 0-2.58-.778c-2.609 0-4.722 2.145-4.722 4.792 0 .963.279 1.858.76 2.609a8.05 8.05 0 0 0-.098 1.259c0 4.412 3.542 7.988 7.913 7.988.494 0 .974-.049 1.441-.134.725.456 1.58.722 2.497.722 2.609 0 4.722-2.145 4.722-4.792a4.81 4.81 0 0 0-.819-2.7z"/></g><metadata><rdf:RDF xmlns:rdf="http://www.w3.org/1999/02/22-rdf-syntax-ns#" xmlns:rdfs="http://www.w3.org/2000/01/rdf-schema#" xmlns:dc="http://purl.org/dc/elements/1.1/"><rdf:Description about="https://iconscout.com/legal#licenses" dc:title="skype,social,media,logo" dc:description="skype,social,media,logo" dc:publisher="Iconscout" dc:date="2017-09-15" dc:format="image/svg+xml" dc:language="en"><dc:creator><rdf:Bag><rdf:li>Epicflaticon by Alfredo</rdf:li></rdf:Bag></dc:creator></rdf:Description></rdf:RDF></metadata></svg>