<?xml version="1.0" encoding="UTF-8"?><svg xmlns="http://www.w3.org/2000/svg" xmlns:xlink="http://www.w3.org/1999/xlink" version="1.1" x="0px" y="0px" viewBox="0 0 32 32" xml:space="preserve"><g id="Line" fill="#414753"><path d="M30 2v28H2V2h28m1-1H1v30h30V1z"/><path d="M30 2v28H2V2h28m1-1H1v30h30V1z"/><path d="M16.118 24.756c-.048 0-.095-.001-.143-.004-.03.002-.062.004-.093.004-1.105 0-1.815-.501-2.501-.986-.474-.335-.921-.651-1.447-.738a4.623 4.623 0 0 0-.76-.064c-.445 0-.797.069-1.053.119-.156.031-.29.057-.393.057-.107 0-.222-.023-.273-.195-.044-.149-.075-.293-.106-.432-.078-.359-.134-.58-.284-.603-1.753-.271-2.255-.64-2.367-.902a.327.327 0 0 1-.027-.112.198.198 0 0 1 .165-.206c2.695-.444 3.903-3.198 3.953-3.315l.004-.01c.165-.334.197-.624.096-.862-.185-.436-.788-.627-1.187-.754-.098-.031-.19-.06-.263-.089-.797-.315-.863-.638-.832-.803.053-.281.429-.476.732-.476a.51.51 0 0 1 .218.044c.358.168.681.253.96.253.385 0 .553-.162.574-.183l-.034-.569c-.08-1.274-.18-2.857.223-3.761 1.208-2.709 3.77-2.919 4.526-2.919l.332-.003h.045c.758 0 3.325.211 4.534 2.921.403.904.303 2.488.223 3.761l-.003.055-.031.515c.019.02.174.168.523.182.265-.01.57-.095.905-.251a.677.677 0 0 1 .281-.055c.113 0 .228.022.323.062l.006.002c.271.096.448.286.452.484.004.187-.139.467-.838.743a4.657 4.657 0 0 1-.263.089c-.4.127-1.003.318-1.187.754-.101.238-.069.528.096.862l.004.01c.05.117 1.257 2.87 3.953 3.314.1.016.171.105.165.206a.308.308 0 0 1-.028.113c-.111.26-.613.629-2.366.9-.143.022-.199.209-.284.6a6.4 6.4 0 0 1-.106.43c-.037.128-.117.187-.251.187h-.022a2.26 2.26 0 0 1-.392-.049 5.24 5.24 0 0 0-1.053-.112c-.247 0-.503.022-.76.064-.526.088-.973.403-1.446.737-.685.483-1.395.985-2.5.985z"/></g><metadata><rdf:RDF xmlns:rdf="http://www.w3.org/1999/02/22-rdf-syntax-ns#" xmlns:rdfs="http://www.w3.org/2000/01/rdf-schema#" xmlns:dc="http://purl.org/dc/elements/1.1/"><rdf:Description about="https://iconscout.com/legal#licenses" dc:title="snapchat,social,media,logo" dc:description="snapchat,social,media,logo" dc:publisher="Iconscout" dc:date="2017-09-15" dc:format="image/svg+xml" dc:language="en"><dc:creator><rdf:Bag><rdf:li>Epicflaticon by Alfredo</rdf:li></rdf:Bag></dc:creator></rdf:Description></rdf:RDF></metadata></svg>