<?xml version="1.0" encoding="UTF-8"?><svg xmlns="http://www.w3.org/2000/svg" xmlns:xlink="http://www.w3.org/1999/xlink" version="1.1" x="0px" y="0px" viewBox="0 0 32 32" xml:space="preserve"><g id="Line" fill="#414753"><path d="M30 2v28H2V2h28m1-1H1v30h30V1z"/><path d="M30 2v28H2V2h28m1-1H1v30h30V1z"/><path d="M16.165 6.888v4.262h4.262v2.664h-4.262v4.262c0 .99.094 1.785.199 2.066.105.28.299.504.585.673.379.227.81.341 1.297.341.865 0 1.87-.294 2.714-.949v2.664c-.71.444-1.525.72-2.117.858a8.489 8.489 0 0 1-1.919.207c-.719 0-1.413-.079-2.07-.296-.6-.197-.935-.416-1.36-.779-.423-.365-.629-.732-.793-1.144-.164-.41-.266-1.262-.266-2.043v-5.86h-2.131V11.15c.682-.05 1.247-.242 1.723-.648.48-.408.864-.897 1.152-1.467.29-.571.322-1.27.322-2.147h2.664z"/></g><metadata><rdf:RDF xmlns:rdf="http://www.w3.org/1999/02/22-rdf-syntax-ns#" xmlns:rdfs="http://www.w3.org/2000/01/rdf-schema#" xmlns:dc="http://purl.org/dc/elements/1.1/"><rdf:Description about="https://iconscout.com/legal#licenses" dc:title="tumblr,social,media,logo" dc:description="tumblr,social,media,logo" dc:publisher="Iconscout" dc:date="2017-09-15" dc:format="image/svg+xml" dc:language="en"><dc:creator><rdf:Bag><rdf:li>Epicflaticon by Alfredo</rdf:li></rdf:Bag></dc:creator></rdf:Description></rdf:RDF></metadata></svg>