<?xml version="1.0" encoding="UTF-8"?><svg xmlns="http://www.w3.org/2000/svg" xmlns:xlink="http://www.w3.org/1999/xlink" version="1.1" x="0px" y="0px" viewBox="0 0 32 32" xml:space="preserve"><g id="Line" fill="#414753"><path d="M30 2v28H2V2h28m1-1H1v30h30V1z"/><path d="M30 2v28H2V2h28m1-1H1v30h30V1z"/><path d="M7.267 14.152s1.508-1.189 2.011-.594c.502.594 2.421 7.769 3.062 9.092.559 1.161 2.101 2.695 3.792 1.599 1.69-1.096 7.31-5.894 8.316-11.559 1.006-5.665-6.763-4.478-7.585.457 2.057-1.235 3.154.501 2.102 2.467-1.051 1.964-2.011 3.245-2.513 3.245-.502 0-.888-1.315-1.462-3.612-.594-2.375-.591-6.652-3.061-6.167-2.33.457-5.391 4.113-5.391 4.113l.729.959z"/></g><metadata><rdf:RDF xmlns:rdf="http://www.w3.org/1999/02/22-rdf-syntax-ns#" xmlns:rdfs="http://www.w3.org/2000/01/rdf-schema#" xmlns:dc="http://purl.org/dc/elements/1.1/"><rdf:Description about="https://iconscout.com/legal#licenses" dc:title="vimeo,social,media,logo" dc:description="vimeo,social,media,logo" dc:publisher="Iconscout" dc:date="2017-09-15" dc:format="image/svg+xml" dc:language="en"><dc:creator><rdf:Bag><rdf:li>Epicflaticon by Alfredo</rdf:li></rdf:Bag></dc:creator></rdf:Description></rdf:RDF></metadata></svg>