<?xml version="1.0" encoding="UTF-8"?><svg xmlns="http://www.w3.org/2000/svg" xmlns:xlink="http://www.w3.org/1999/xlink" version="1.1" x="0px" y="0px" viewBox="0 0 32 32" xml:space="preserve"><g id="Line" fill="#414753"><path d="M30 2v28H2V2h28m1-1H1v30h30V1z"/><path d="M30 2v28H2V2h28m1-1H1v30h30V1z"/><path d="M18.47 10.953c0-1.274 2.561-1.934 2.561.221a13.263 13.263 0 0 1-.43 3.274h2.662c.202-1.207.194-2.399.194-3.804 0-3.956-7.456-4.615-7.456.397 0 3.52 1.694 5.372 3.466 6.347C17.99 20.225 16 21.77 16 21.77c-5.569-4.441-5.03-11.96-5.03-11.96H8.543c.046 10.158 5.526 13.718 6.201 14.247.673.528.808.484 1.617.439.807-.044 2.648-1.847 4.895-5.275.216-.332.411-.649.588-.958a8.58 8.58 0 0 0 1.613.21v-2.155c-4.718-.44-4.987-4.396-4.987-5.365z"/></g><metadata><rdf:RDF xmlns:rdf="http://www.w3.org/1999/02/22-rdf-syntax-ns#" xmlns:rdfs="http://www.w3.org/2000/01/rdf-schema#" xmlns:dc="http://purl.org/dc/elements/1.1/"><rdf:Description about="https://iconscout.com/legal#licenses" dc:title="vine,social,media,logo" dc:description="vine,social,media,logo" dc:publisher="Iconscout" dc:date="2017-09-15" dc:format="image/svg+xml" dc:language="en"><dc:creator><rdf:Bag><rdf:li>Epicflaticon by Alfredo</rdf:li></rdf:Bag></dc:creator></rdf:Description></rdf:RDF></metadata></svg>