<?xml version="1.0" encoding="UTF-8"?><svg xmlns="http://www.w3.org/2000/svg" xmlns:xlink="http://www.w3.org/1999/xlink" version="1.1" id="Layer_1" x="0px" y="0px" viewBox="0 0 32 32" xml:space="preserve"><g fill="#414753"><path d="M30 2v28H2V2h28m1-1H1v30h30V1z"/><path d="M30 2v28H2V2h28m1-1H1v30h30V1z"/></g><g fill="#414753"><path d="M21.35 19.27c-.151 0-.261.042-.327.132-.066.085-.098.231-.098.433v.488h.841v-.488c0-.203-.034-.349-.101-.433-.063-.09-.17-.132-.315-.132z"/><path d="M18.074 19.254a.446.446 0 0 0-.202.047.672.672 0 0 0-.195.148v3.011a.8.8 0 0 0 .226.17.522.522 0 0 0 .229.052c.116 0 .202-.034.256-.103.054-.067.084-.177.084-.332v-2.496c0-.163-.034-.288-.101-.371a.363.363 0 0 0-.297-.126z"/><path d="M23.355 15.507c-.781-.78-7.358-.791-7.358-.789 0-.001-6.577.01-7.36.788-.783.782-.784 4.636-.784 4.658 0 .029.002 3.877.784 4.659.783.779 7.36.796 7.36.796s6.578-.017 7.358-.796c.785-.783.793-4.659.793-4.659-.001-.021-.01-3.876-.793-4.657zm-10.486 2.272h-1.108v5.599H10.69v-5.599H9.582v-.951h3.286v.951h.001zM16 23.377h-.948v-.531a2.016 2.016 0 0 1-.549.447c-.19.104-.374.153-.552.153-.22 0-.383-.071-.497-.216-.11-.144-.166-.358-.166-.647v-4.041h.949v3.707c0 .115.021.198.059.249.042.052.106.077.194.077.07 0 .159-.034.266-.102.108-.068.204-.154.295-.258v-3.672H16v4.834zm3.449-.998c0 .342-.075.604-.224.786-.148.182-.364.273-.646.273a1.12 1.12 0 0 1-.496-.104 1.227 1.227 0 0 1-.406-.327v.37h-.96v-6.552h.96v2.11a1.45 1.45 0 0 1 .407-.336.929.929 0 0 1 .439-.115c.302 0 .531.103.689.307.16.206.239.508.239.904v2.683h-.002zm3.295-1.3h-1.818v.909c0 .255.031.431.092.53.064.099.17.147.323.147.157 0 .267-.041.33-.125.062-.084.096-.266.096-.552v-.22h.977v.249c0 .496-.118.869-.357 1.121-.237.25-.593.374-1.066.374-.426 0-.761-.131-1.006-.399-.244-.265-.368-.63-.368-1.097v-2.171c0-.418.136-.761.404-1.025.268-.264.615-.395 1.04-.395.435 0 .769.123 1.003.367.233.244.35.595.35 1.053v1.234z"/><path d="M21.347 12.69h-1.071v-.589a2.24 2.24 0 0 1-.616.495c-.214.113-.42.169-.621.169-.25 0-.434-.079-.559-.238-.125-.159-.188-.396-.188-.713V7.365h1.069v4.082c0 .126.025.217.069.274.043.056.117.085.217.085.078 0 .178-.038.299-.112.119-.075.23-.169.329-.287V7.365h1.071l.001 5.325z"/><path d="M17.002 7.619c-.283-.258-.647-.387-1.089-.387-.485 0-.873.123-1.161.367-.289.244-.433.572-.432.986v2.759c0 .453.141.812.42 1.081.281.267.657.401 1.124.401.487 0 .868-.129 1.147-.389.276-.26.415-.617.415-1.072V8.613c0-.405-.142-.737-.424-.994zm-.666 3.824a.447.447 0 0 1-.128.337.487.487 0 0 1-.345.122c-.142 0-.251-.039-.327-.119a.475.475 0 0 1-.115-.339v-2.9a.36.36 0 0 1 .123-.282.466.466 0 0 1 .319-.106c.14 0 .255.036.342.106a.346.346 0 0 1 .131.282v2.899z"/><path d="M11.405 5.473h-1.213l1.434 4.358v2.859h1.205V9.695l1.401-4.222h-1.225l-.744 2.885h-.075z"/></g><metadata><rdf:RDF xmlns:rdf="http://www.w3.org/1999/02/22-rdf-syntax-ns#" xmlns:rdfs="http://www.w3.org/2000/01/rdf-schema#" xmlns:dc="http://purl.org/dc/elements/1.1/"><rdf:Description about="https://iconscout.com/legal#licenses" dc:title="youtube,social,media,logo" dc:description="youtube,social,media,logo" dc:publisher="Iconscout" dc:date="2017-09-15" dc:format="image/svg+xml" dc:language="en"><dc:creator><rdf:Bag><rdf:li>Epicflaticon by Alfredo</rdf:li></rdf:Bag></dc:creator></rdf:Description></rdf:RDF></metadata></svg>